<?xml version="1.0" encoding="UTF-8" standalone="no"?>
<!-- Created with Inkscape (http://www.inkscape.org/) -->

<svg
   width="461.64108"
   height="74.098152"
   viewBox="0 0 461.64108 74.098153"
   version="1.1"
   id="svg1"
   xmlns="http://www.w3.org/2000/svg"
   xmlns:svg="http://www.w3.org/2000/svg">
  <defs
     id="defs1" />
  <g
     id="layer1"
     transform="translate(-33.764426,-213.30676)">
    <g
       style="fill:#3285ff;fill-opacity:1"
       id="g2"
       transform="matrix(0.09923315,0,0,0.1029141,24.569332,295.98528)">
      <path
         d="M 355.66151,-433.37406 Z M 92.661512,-83.374065 V -563.37406 l 319.999998,-240 215,162 q -25,3 -47,11.5 -22,8.5 -42,22.5 l -126,-96 -240,180 v 360 h 160 v 79.999995 z m 319.999998,0 v -75.999995 q 0,-21 10.5,-39.5 10.5,-18.5 28.5,-29.5 46,-27 96.5,-41 50.5,-14 104.5,-14 54,0 104.5,14 50.5,14 96.5,41 18,11 28.5,29.5 10.5,18.5 10.5,39.5 v 75.999995 z m 86,-79.999995 h 308 q -35,-20 -74,-30 -39,-10 -80,-10 -41,0 -80,10 -39,10 -74,30 z m 154,-160 q -50,0 -85,-35 -35,-35 -35,-85 0,-50 35,-85 35,-35 85,-35 50,0 85,35 35,35 35,85 0,50 -35,85 -35,35 -85,35 z m 0,-80 q 17,0 28.5,-11.5 11.5,-11.5 11.5,-28.5 0,-17 -11.5,-28.5 -11.5,-11.5 -28.5,-11.5 -17,0 -28.5,11.5 -11.5,11.5 -11.5,28.5 0,17 11.5,28.5 11.5,11.5 28.5,11.5 z m 0,240 z"
         id="path1"
         style="fill:#3285ff;fill-opacity:1" />
    </g>
    <text
       xml:space="preserve"
       style="font-weight:bold;font-size:74.6667px;line-height:0.1;font-family:Arial;-inkscape-font-specification:'Arial, Bold';text-align:start;writing-mode:lr-tb;direction:ltr;text-anchor:start;fill:#0d6efd;fill-opacity:1"
       x="125.01595"
       y="277.67361"
       id="text1"><tspan
         id="tspan1"
         x="125.01595"
         y="277.67361"
         style="fill:#0d6efd;fill-opacity:1">RentHome</tspan></text>
  </g>
  <path
     style="fill:#0d6efd;fill-opacity:1;stroke-width:0.259933"
     d="M 52.512777,48.857246 C 49.840418,48.107889 47.28422,46.19237 45.735138,43.778335 43.10595,39.6811 43.273685,33.68125 46.125728,29.807024 c 4.421097,-6.005635 12.405317,-6.655129 17.626573,-1.433874 2.402841,2.402842 3.570358,5.237074 3.570358,8.667306 0,4.838604 -2.641248,9.071945 -6.931237,11.109252 -1.646052,0.781707 -2.25238,0.927909 -4.189935,1.01031 -1.515705,0.06446 -2.736398,-0.03574 -3.68871,-0.302772 z m 5.204849,-8.243593 c 2.521951,-1.699542 2.521951,-5.446851 0,-7.146393 -1.088964,-0.733852 -2.909335,-0.779032 -4.168995,-0.103469 -1.075064,0.576563 -2.081888,2.334722 -2.081888,3.635481 0,1.272411 0.910507,3.026322 1.900133,3.660231 1.170154,0.749546 3.202239,0.728131 4.35075,-0.04585 z"
     id="path2" />
  <path
     style="fill:#0d6efd;fill-opacity:1;stroke-width:0.259933"
     d="M 1.2804773e-6,49.422211 V 24.893473 L 15.818351,12.593375 C 24.518444,5.8283215 31.716332,0.30958567 31.813661,0.32951794 32.082507,0.38457688 52.366353,16.253412 52.445539,16.470632 c 0.03797,0.10415 -0.663853,0.340434 -1.559598,0.525076 -1.554628,0.320459 -4.490598,1.565432 -5.952586,2.524142 l -0.684892,0.449124 -6.162683,-4.869283 c -3.389472,-2.678106 -6.31283,-4.811665 -6.496348,-4.741243 -0.183518,0.07042 -5.611666,4.235633 -12.062554,9.256024 L 7.7979926,28.742455 v 18.575286 18.575283 h 7.9279574 7.927958 v 4.028962 4.028962 H 11.826954 1.2804773e-6 Z"
     id="path3" />
  <path
     style="fill:#0d6efd;fill-opacity:1;stroke-width:0.259933"
     d="m 31.971765,69.277414 c 0,-5.029625 0.168774,-5.901167 1.51251,-7.810547 1.849342,-2.62782 8.524386,-5.80347 15.123205,-7.194861 3.450368,-0.727526 10.945775,-0.654187 14.525188,0.142122 3.548325,0.789393 6.608967,1.882116 9.69145,3.460082 3.123023,1.598718 4.652706,2.922787 5.596083,4.843878 0.707439,1.44063 0.732102,1.632176 0.818743,6.359116 l 0.08933,4.873744 H 55.65002 31.971765 Z m 38.308103,-3.881361 c -1.52654,-0.930848 -4.575604,-2.147195 -7.081242,-2.824885 -2.271726,-0.614424 -2.962847,-0.678699 -7.442987,-0.692211 -5.169033,-0.01559 -5.970887,0.09342 -9.877456,1.342813 -1.981691,0.633781 -5.58856,2.276043 -5.58856,2.544556 0,0.06968 6.930464,0.126261 15.401032,0.125727 15.254548,-9.63e-4 15.39331,-0.0057 14.589213,-0.496 z"
     id="path4" />
</svg>
